<svg width="55" height="55" viewBox="0 0 55 55" fill="none" xmlns="http://www.w3.org/2000/svg">
<path d="M18.8755 43.6143C15.4596 41.6421 13.2483 38.7777 12.2417 35.0211C11.2351 31.2645 11.718 27.6783 13.6902 24.2623L21.6069 10.5502C21.843 10.1413 22.1792 9.87832 22.6156 9.76139C23.0519 9.64447 23.4746 9.70406 23.8836 9.94017C24.2925 10.1763 24.5555 10.5125 24.6724 10.9489C24.7893 11.3853 24.7297 11.8079 24.4936 12.2169L19.4936 20.8771L22.3804 22.5438L29.047 10.9968C29.2831 10.5878 29.6194 10.3249 30.0557 10.208C30.4921 10.091 30.9148 10.1506 31.3237 10.3868C31.7327 10.6229 31.9956 10.9591 32.1126 11.3955C32.2295 11.8318 32.1699 12.2545 31.9338 12.6635L25.2671 24.2105L28.1539 25.8771L35.6539 12.8868C35.89 12.4778 36.2262 12.2149 36.6626 12.0979C37.0989 11.981 37.5216 12.0406 37.9306 12.2767C38.3395 12.5128 38.6025 12.8491 38.7194 13.2854C38.8363 13.7218 38.7767 14.1445 38.5406 14.5534L31.0406 27.5438L33.9274 29.2105L39.7607 19.1068C39.9968 18.6979 40.333 18.4349 40.7694 18.318C41.2058 18.2011 41.6284 18.2607 42.0374 18.4968C42.4464 18.7329 42.7093 19.0691 42.8262 19.5055C42.9432 19.9419 42.8836 20.3645 42.6474 20.7735L37.8558 29.0729C36.8665 29.1753 35.9632 29.5038 35.1459 30.0583C34.3285 30.6128 33.6768 31.3111 33.1907 32.153L32.149 33.9573L30.3448 32.9156C28.8293 32.0406 27.2462 31.8242 25.5956 32.2665C23.945 32.7088 22.6822 33.6877 21.8072 35.2033L20.7655 37.0075L22.9306 38.2575L23.9722 36.4533C24.5 35.5391 25.2572 34.9499 26.2438 34.6855C27.2303 34.4212 28.1807 34.5529 29.0948 35.0807L33.0641 37.3723L35.3558 33.403C35.8836 32.4889 36.6407 31.8997 37.6273 31.6353C38.6139 31.371 39.5642 31.5027 40.4784 32.0304L41.5609 32.6554L38.2276 38.4289C36.2554 41.8449 33.391 44.0562 29.6344 45.0628C25.8778 46.0694 22.2915 45.5865 18.8755 43.6143Z" fill="#1D1B20"/>
</svg>
